<svg width="108" height="93" viewBox="0 0 108 93" fill="none" xmlns="http://www.w3.org/2000/svg">
<path opacity="0.327624" d="M9.04244 92.396C4.08459 93.1014 -7.27449e-06 88.9404 -6.8367e-06 83.9326C-6.44919e-06 79.5 3.25937 75.8591 7.44987 74.4144C12.395 72.7094 16.0831 70.2364 18.5143 66.9952C20.9668 63.7256 22.5665 58.6796 23.3135 51.8571C23.9145 46.367 19.3269 41.872 13.8041 41.872L11.3225 41.872C5.79961 41.872 1.32246 37.3949 1.32246 31.872L1.32246 9.99999C1.32246 4.47714 5.79961 -1.30525e-06 11.3225 -8.22425e-07L34.5224 1.20578e-06C40.0453 1.6886e-06 44.5225 4.47715 44.5225 10L44.5225 35.2607C44.5224 53.4787 41.1429 67.5829 34.3837 77.5735C28.9619 85.8228 20.5149 90.7637 9.04244 92.396ZM72.52 92.396C67.5621 93.1014 63.4776 88.9404 63.4776 83.9326C63.4776 79.5 66.7369 75.8591 70.9274 74.4144C75.8726 72.7094 79.5607 70.2364 81.9918 66.9953C84.4444 63.7256 86.0441 58.6796 86.791 51.8571C87.392 46.367 82.8045 41.872 77.2816 41.872L74.8 41.872C69.2772 41.872 64.8 37.3949 64.8 31.872L64.8 10C64.8 4.47715 69.2772 4.24413e-06 74.8 4.72696e-06L98 6.75517e-06C103.523 7.23799e-06 108 4.47716 108 10L108 35.2607C108 53.4787 104.62 67.5829 97.8612 77.5735C92.4395 85.8228 83.9924 90.7637 72.52 92.396Z" fill="url(#paint0_linear_505_2691)" fill-opacity="0.5"/>
<defs>
<linearGradient id="paint0_linear_505_2691" x1="108" y1="46.5" x2="28.3737" y2="-134.519" gradientUnits="userSpaceOnUse">
<stop stop-color="#9DD6FF"/>
<stop stop-color="#9DD6FF"/>
<stop offset="1" stop-color="#D2A4FF"/>
</linearGradient>
</defs>
</svg>
