<svg width="155" height="185" viewBox="0 0 155 185" fill="none" xmlns="http://www.w3.org/2000/svg">
<g id="Group 271">
<g id="Rectangle 223" filter="url(#filter0_d_507_2371)">
<rect x="4" width="147" height="177" rx="10" fill="white"/>
</g>
<g id="Rectangle 225" filter="url(#filter1_d_507_2371)">
<mask id="path-2-outside-1_507_2371" maskUnits="userSpaceOnUse" x="4" y="0" width="147" height="136" fill="black">
<rect fill="white" x="4" width="147" height="136"/>
<path d="M4 10C4 4.47715 8.47715 0 14 0H141C146.523 0 151 4.47715 151 10V125C151 130.523 146.523 135 141 135H14C8.47715 135 4 130.523 4 125V10Z"/>
</mask>
<path d="M4 10C4 4.47715 8.47715 0 14 0H141C146.523 0 151 4.47715 151 10V125C151 130.523 146.523 135 141 135H14C8.47715 135 4 130.523 4 125V10Z" fill="white" shape-rendering="crispEdges"/>
<path d="M4 0H151H4ZM151 125C151 131.075 146.075 136 140 136H15C8.92487 136 4 131.075 4 125C4 129.971 8.47715 134 14 134H141C146.523 134 151 129.971 151 125ZM4 135V0V135ZM151 0V135V0Z" fill="black" fill-opacity="0.3" mask="url(#path-2-outside-1_507_2371)"/>
</g>
<mask id="mask0_507_2371" style="mask-type:alpha" maskUnits="userSpaceOnUse" x="4" y="0" width="147" height="135">
<rect id="Rectangle 224" x="4" width="147" height="135" rx="10" fill="#3366FF"/>
</mask>
<g mask="url(#mask0_507_2371)">
<g id="Group">
<g id="Group_2">
<path id="Vector" d="M74.5663 97.2906C47.9151 97.745 34.3624 130.267 34.8095 152.403C35.7111 186.736 65.9831 195.319 94.8918 193.062C121.543 191.258 127.421 171.827 128.323 148.335C128.777 124.843 117.929 107.677 95.7934 99.5482C89.9223 97.2906 84.0511 95.033 78.1727 97.2906H74.5591H74.5663Z" fill="white"/>
<path id="Vector_2" d="M74.5674 95.8628C51.6453 96.4903 38.4387 119.03 34.5582 139.24C32.5098 149.93 32.9354 161.268 37.6164 171.229C41.9585 180.468 50.2821 186.772 59.6009 190.437C69.8359 194.454 81.2609 195.233 92.1449 194.685C102.863 194.144 113.372 191.396 120.332 182.676C126.737 174.655 128.605 163.966 129.435 154.012C130.409 142.299 129.081 130.448 123.333 120.033C118.976 112.142 112.074 106.011 104.219 101.748C99.3 99.0797 93.775 96.9231 88.3582 95.5671C83.5762 94.3697 79.299 95.87 74.5746 95.87C72.7282 95.87 72.7282 98.7335 74.5746 98.7335C76.2768 98.7335 77.9214 98.9066 79.5514 98.344C84.1243 96.7788 89.1733 98.6036 93.4721 100.19C99.6895 102.491 105.604 105.304 110.775 109.502C120.102 117.061 125.215 128.147 126.55 139.933C127.798 150.954 126.629 163.735 122.193 173.984C117.664 184.45 108.395 190.083 97.2876 191.425C76.6158 193.928 49.6834 190.199 39.8163 169.202C34.9261 158.809 35.5969 146.424 38.3017 135.547C40.9776 124.779 46.2357 114.219 54.5809 106.732C60.1131 101.77 67.1455 98.9354 74.5746 98.7335C76.4139 98.683 76.4211 95.8195 74.5746 95.87L74.5674 95.8628Z" fill="#002E6E"/>
</g>
<g id="Group_3">
<path id="Vector_3" d="M75.8673 106.156C54.1785 106.524 43.143 132.994 43.5109 151.005C44.2466 178.947 68.8781 185.929 92.4062 184.09C114.095 182.618 118.877 166.808 119.613 147.694C119.981 128.573 111.159 114.609 93.1419 107.988C88.3598 106.149 83.585 104.309 78.8029 106.149H75.8601L75.8673 106.156Z" fill="#AEC5E7"/>
<path id="Vector_4" d="M75.8687 104.987C53.6678 105.65 42.3365 131.039 42.3438 150.434C42.3438 161.203 46.6858 171.272 55.4926 177.648C64.0325 183.829 75.27 185.495 85.5554 185.539C95.711 185.575 106.674 184.038 113.26 175.448C119.592 167.182 120.927 155.476 120.79 145.371C120.631 134.119 116.642 123.242 108.268 115.546C104.013 111.637 98.8413 108.889 93.4606 106.869C89.9263 105.542 86.457 104.265 82.6342 104.236C81.1989 104.229 79.7996 104.994 78.4364 104.994H75.8687C74.3684 104.994 74.3684 107.323 75.8687 107.323C77.7945 107.323 79.1577 107.179 81.033 106.732C85.3823 105.693 90.3519 108.131 94.2973 109.682C100.06 111.94 105.297 115.452 109.444 120.054C117.811 129.337 119.174 142.082 118.034 154.019C117.032 164.535 113.642 175.412 103.486 180.324C97.9974 182.978 91.542 183.187 85.5554 183.216C79.879 183.245 74.2025 182.625 68.7208 181.16C61.0825 179.126 54.0212 174.972 49.5854 168.307C44.6807 160.929 43.9883 151.487 45.2289 142.926C47.5442 126.935 57.6853 107.872 75.8831 107.331C77.3834 107.287 77.3834 104.958 75.8831 105.001L75.8687 104.987Z" fill="#002E6E"/>
</g>
<g id="Group_4">
<g id="Group_5">
<path id="Vector_5" d="M100.333 117.437C104.062 116.608 107.61 115.49 110.842 114.004C126.493 107.13 134.514 89.1851 134.514 73.1511C134.514 57.1172 130.698 36.1136 116.569 27.3357C105.108 19.7046 89.0736 13.4006 75.3261 14.5474C57.3807 17.6056 41.729 25.4315 32.5688 41.4655C24.166 55.588 21.1078 70.1001 25.3128 86.5164C30.1237 104.656 42.1185 115.259 59.8908 117.971C51.9928 121.318 46.2298 130.002 42.1041 136.732C38.9449 141.607 37.2283 146.202 37.5168 151.936C38.0938 158.824 42.6811 160.26 48.9923 159.971C44.6863 164.847 43.2582 172.882 49.2808 176.611C54.4452 179.482 62.1917 178.905 67.6373 178.616C79.9711 178.046 91.7351 176.611 104.069 176.892C118.415 177.469 113.539 165.994 110.957 157.1C117.557 158.247 124.149 156.242 125.015 148.496C126.162 141.038 120.709 134.438 115.833 129.562C111.231 124.96 106.399 119.911 100.326 117.445L100.333 117.437Z" fill="#002E6E"/>
<path id="Vector_6" d="M100.71 118.822C107.252 117.321 113.737 114.941 119.038 110.722C123.899 106.848 127.672 101.915 130.477 96.3898C136.053 85.4192 136.666 73.1864 135.195 61.1771C133.781 49.6728 130.167 37.4183 121.462 29.2751C116.593 24.7238 110.037 21.543 103.999 18.8959C97.342 15.9747 90.3312 13.9624 83.0968 13.205C70.5611 11.8851 56.626 17.0999 46.4344 24.1829C35.3051 31.9005 27.8832 44.2632 24.1253 57.1091C20.216 70.4816 21.7812 85.4913 28.15 97.854C33.4009 108.046 42.7198 115.02 53.6544 118.107C55.5802 118.648 57.5492 119.031 59.5183 119.348C59.4029 118.475 59.2875 117.603 59.1793 116.73C54.0078 119.045 49.9326 123.128 46.5498 127.585C43.0949 132.143 39.676 137.12 37.5627 142.458C35.7595 147.002 35.0599 153.299 37.9017 157.568C40.2963 161.168 45.1 161.535 49.0093 161.391C48.6703 160.576 48.3313 159.761 47.9995 158.946C42.9939 164.889 41.5658 175.305 50.3221 178.651C55.1258 180.483 60.3622 180.397 65.4184 180.159C71.7295 179.856 78.0263 179.394 84.323 178.962C90.9011 178.507 97.4935 178.19 104.086 178.32C107.462 178.384 111.234 178.06 113.585 175.333C117.79 170.45 113.874 161.903 112.352 156.71C111.768 157.294 111.176 157.886 110.592 158.47C114.674 159.112 119.428 158.997 122.717 156.126C126.626 152.707 127.21 147.088 126.042 142.285C124.65 136.594 120.243 131.927 116.232 127.91C111.695 123.366 107.058 118.771 101.064 116.196C99.3833 115.475 97.9263 117.942 99.6213 118.67C104.274 120.668 108.046 123.899 111.652 127.397C115.049 130.694 118.468 134.033 121.029 138.044C123.64 142.133 124.837 147.478 122.507 151.979C120.452 155.953 115.244 156.321 111.356 155.715C110.332 155.556 109.258 156.335 109.597 157.475C110.873 161.81 114.097 168.481 111.804 172.91C110.275 175.867 105.767 175.485 103.033 175.434C97.8253 175.333 92.6177 175.579 87.4245 175.896C77.9253 176.473 68.3179 177.714 58.7971 177.382C54.5776 177.238 49.4998 176.48 47.3432 172.398C45.403 168.727 47.6245 163.829 50.0263 160.98C50.7765 160.086 50.3581 158.492 49.0165 158.535C45.2659 158.665 40.9671 158.412 39.4669 154.359C37.7286 149.671 39.7481 143.886 41.9841 139.746C46.2613 131.841 52.1902 122.983 60.6363 119.211C61.7326 118.721 61.4802 116.78 60.2973 116.593C48.0789 114.638 37.6132 108.522 31.3309 97.6737C23.8007 84.7196 23.1876 68.4043 27.9697 54.4476C32.6292 40.866 41.6235 29.3977 54.3828 22.7115C60.3045 19.61 66.7888 17.6842 73.3163 16.3714C80.8176 14.8568 88.8238 16.595 95.9861 18.8887C106.553 22.2643 118.346 27.9119 124.577 37.4688C130.189 46.0808 132.194 56.8783 132.879 66.969C133.586 77.4491 132.05 87.6768 126.943 96.9668C121.137 107.526 111.486 113.419 99.9531 116.066C98.1571 116.477 98.9144 119.24 100.718 118.829L100.71 118.822Z" fill="#002E6E"/>
</g>
<g id="Group_6">
<path id="Vector_7" d="M74.3163 22.8813C60.9511 22.1167 45.5518 35.3522 39.0603 45.2769C29.5178 60.5463 27.9887 78.4917 37.9135 93.7683C55.4766 120.881 111.217 117.058 123.817 86.5123C128.78 73.5293 126.493 53.6798 118.855 41.4614C110.452 28.4784 88.0566 25.1677 74.3091 22.8813C73.1623 22.8813 75.4559 23.2636 74.3091 22.8813H74.3163Z" fill="white"/>
<path id="Vector_8" d="M74.3147 21.4463C61.5986 20.9558 49.748 30.2026 41.8212 39.2907C32.9783 49.4318 28.1386 63.9006 30.1654 77.3091C31.8964 88.7702 38.0345 98.9907 47.7501 105.352C55.8067 110.625 65.6161 112.926 75.1369 113.337C93.7026 114.145 115.276 106.78 124.133 89.2823C129.709 78.2612 128.605 63.9006 125.237 52.4107C123.6 46.8136 121.097 41.1876 117.05 36.9249C113.242 32.9146 108.15 30.3108 103.094 28.2623C98.1312 26.25 92.902 24.9373 87.6727 23.8265C85.1988 23.3 82.7103 22.8528 80.2147 22.42C78.2817 22.0882 75.9736 21.3381 74.019 21.4679C73.24 21.5184 72.5908 22.081 72.5836 22.9033V22.9465C72.5836 23.5957 73.0236 24.1439 73.6367 24.3242C73.954 24.4179 74.2858 24.4612 74.6176 24.4756C75.3966 24.5045 76.0458 23.8049 76.0458 23.0403C76.0458 23.0259 76.0458 23.0115 76.0458 22.997C76.0458 22.3046 75.5913 21.8574 74.9927 21.6194C74.8917 21.5761 74.7907 21.5401 74.6898 21.4968C72.9731 20.8116 72.2374 23.5813 73.9252 24.2593C74.0262 24.3025 74.1272 24.3386 74.2281 24.3819C73.8747 23.9203 73.5285 23.4586 73.1751 23.0042V23.0475L74.6104 21.6122C74.5311 21.6266 74.4589 21.6122 74.3868 21.5617C74.7402 22.0233 75.0865 22.4849 75.4399 22.9393V22.8961L74.0045 24.3314C76.3198 24.1799 79.1328 25.1248 81.4121 25.5287C84.4342 26.0697 87.4347 26.6755 90.4208 27.3752C96.4074 28.7817 102.336 30.657 107.76 33.5926C113.191 36.5354 117.058 40.6034 119.77 46.1356C122.864 52.4539 124.371 59.6162 124.876 66.591C125.72 78.3622 122.929 89.4987 114.18 97.714C106.938 104.516 97.1431 108.187 87.4636 109.774C77.6758 111.375 67.3688 110.553 58.0138 107.235C48.0602 103.708 40.4363 96.8773 35.9861 87.306C29.5306 73.4359 32.7187 56.5436 41.3956 44.3757C48.5146 34.3932 61.3822 23.8121 74.293 24.3098C76.1395 24.3819 76.1323 21.5184 74.293 21.4463H74.3147Z" fill="#002E6E"/>
</g>
</g>
<path id="Vector_9" d="M78.6699 121.55C77.4725 118.521 74.7245 115.16 71.0892 116.948C68.6513 118.153 67.3098 121.485 69.7837 123.404C73.3036 126.145 76.8234 123.671 79.6219 121.348C80.5524 120.576 81.5261 119.754 82.6585 119.3C83.7981 118.845 84.8728 119.776 84.3752 120.937C83.1778 123.757 80.1124 123.281 78.8574 120.915C78.3669 119.999 76.8667 119.963 76.3834 120.915C74.5514 124.543 74.876 128.785 74.3278 132.708C74.0753 134.512 76.8306 135.29 77.0903 133.473C77.5952 129.881 77.184 125.669 78.8574 122.358H76.3834C78.3814 126.109 82.2618 126.801 85.5076 124.118C88.3278 121.788 87.7868 117.756 84.404 116.436C80.5957 114.95 77.2778 120.504 74.234 121.644C73.2026 122.033 70.3968 121.406 71.7095 119.942C73.4695 117.987 75.3304 120.843 75.9002 122.3C76.571 123.995 79.3406 123.26 78.6626 121.536L78.6699 121.55Z" fill="white"/>
<path id="Vector_10" d="M76.9507 122.408C77.4051 125.978 78.4293 129.353 79.6771 132.715C80.3119 134.431 83.0816 133.688 82.4396 131.95C81.2856 128.856 80.2325 125.697 79.8142 122.4C79.5834 120.597 76.7199 120.568 76.9507 122.4V122.408Z" fill="white"/>
<path id="Vector_11" d="M63.5069 40.7018C63.9686 45.83 68.6064 50.879 73.7418 51.4271C78.7764 51.9681 82.6568 48.6935 79.5409 43.796C78.9999 44.4957 78.4662 45.1953 77.9252 45.9022C80.7238 46.5874 85.1957 47.6765 87.1792 44.8635C89.8191 41.1201 86.2848 38.0114 82.5054 37.7445C80.6589 37.6147 80.6733 40.4782 82.5054 40.608C83.544 40.6801 84.5466 40.9686 85.1957 41.8558C86.5301 43.6806 83.1184 43.7744 82.5775 43.7672C81.2648 43.76 79.952 43.4426 78.6826 43.1325C77.5141 42.8439 76.3673 44.135 77.0669 45.2386C77.7161 46.2628 78.5167 47.489 77.1968 48.2607C76.0499 48.9243 74.3044 48.6791 73.0927 48.4266C69.9479 47.763 66.6589 43.9114 66.3704 40.7018C66.2045 38.8769 63.341 38.8625 63.5069 40.7018Z" fill="#002E6E"/>
<g id="Group_7">
<path id="Vector_12" d="M106.344 118.201C98.9437 119.694 92.5965 128.487 93.4692 135.202C98.2585 135.396 100.415 135.692 102.247 134.726C103.913 133.853 105.161 130.549 107.65 127.527C111.133 123.423 115.05 120.444 106.344 118.201Z" fill="white"/>
<path id="Vector_13" d="M105.962 116.816C98.1503 118.634 91.2477 126.993 92.0339 135.194C92.1132 135.995 92.6253 136.586 93.4692 136.629C96.6068 136.766 100.033 137.343 102.976 135.959C104.274 135.345 105.147 133.795 105.882 132.648C107.109 130.744 108.32 128.912 109.828 127.209C111.227 125.63 113.275 123.646 113.023 121.331C112.706 118.432 109.049 117.458 106.733 116.816C104.952 116.325 104.195 119.088 105.969 119.578C107.462 119.99 111.003 120.545 109.806 122.68C108.789 124.49 107.036 125.875 105.825 127.556C104.555 129.316 103.214 132.886 101.064 133.679C98.8355 134.502 95.7773 133.867 93.4764 133.766C93.9525 134.242 94.4285 134.718 94.9118 135.201C94.241 128.205 100.062 121.136 106.733 119.586C108.529 119.167 107.772 116.405 105.969 116.823L105.962 116.816Z" fill="#002E6E"/>
</g>
<g id="Group_8">
<path id="Vector_14" d="M55.4836 118.209C53.19 119.355 51.2858 120.885 50.5212 123.553C49.461 127.614 50.2039 132.663 51.9566 133.579C53.9906 134.639 57.3734 131.192 60.4532 131.192C60.8355 127.758 59.6887 117.062 55.4908 118.209H55.4836Z" fill="white"/>
<path id="Vector_15" d="M54.7531 116.968C49.2426 119.875 47.7856 125.299 48.9973 131.199C49.3508 132.922 50.4327 135 52.4018 135.166C55.3374 135.411 57.5805 132.836 60.444 132.619C61.2807 132.555 61.8 132.014 61.8793 131.184C62.2544 127.08 61.5403 115.597 55.1065 116.824C53.2961 117.17 54.0607 119.925 55.8711 119.586C58.9149 119.009 59.189 129.381 59.0231 131.184L60.4584 129.749C58.9942 129.857 57.732 130.304 56.3976 130.903C54.8829 131.581 52.7985 133.377 51.9618 131.083C51.2405 129.121 51.3848 126.77 51.7238 124.743C52.1637 122.11 53.9814 120.61 56.2173 119.427C57.8546 118.569 56.4048 116.095 54.7748 116.953L54.7531 116.968Z" fill="#002E6E"/>
</g>
<path id="Vector_16" d="M46.9315 138.802C48.814 135.268 52.1463 132.462 56.0196 131.373C61.1478 129.937 64.3864 134.618 64.0041 139.263C63.6579 143.512 60.8161 147.587 58.2916 150.847C55.9907 153.819 53.3076 156.56 50.3936 158.933C49.6795 159.517 50.6965 160.519 51.4034 159.942C55.3055 156.769 58.7244 152.96 61.5301 148.784C64.0762 144.998 66.2545 140.273 65.187 135.628C64.2133 131.394 60.3039 129.223 56.2215 129.851C51.8145 130.529 47.7249 134.258 45.6981 138.066C45.2653 138.881 46.4987 139.602 46.9315 138.787V138.802Z" fill="white"/>
<path id="Vector_17" d="M104.158 134.314C100.963 133.131 97.2846 132.272 94.0605 133.765C90.6921 135.316 90.6705 139.875 91.6009 142.875C93.909 150.304 102.932 156.882 110.462 157.863C111.378 157.986 111.364 156.55 110.462 156.428C103.834 155.562 97.2485 150.268 93.9523 144.628C92.2717 141.757 91.3773 136.997 94.789 134.992C97.3639 133.47 101.23 134.739 103.783 135.684C104.649 136.009 105.024 134.624 104.166 134.306L104.158 134.314Z" fill="white"/>
<g id="Group_9">
<path id="Vector_18" d="M66.2806 69.9118C66.2806 76.6629 60.8133 82.1302 54.0622 82.1302C47.311 82.1302 41.8438 76.6629 41.8438 69.9118C41.8438 63.1606 47.311 57.6934 54.0622 57.6934C60.8133 57.6934 66.2806 63.1606 66.2806 69.9118Z" fill="#AEC5E7"/>
<path id="Vector_19" d="M54.0597 82.4123C47.1643 82.4123 41.5527 76.8008 41.5527 69.9054C41.5527 63.01 47.1643 57.3984 54.0597 57.3984C60.9551 57.3984 66.5666 63.01 66.5666 69.9054C66.5666 76.8008 60.9551 82.4123 54.0597 82.4123ZM54.0597 57.9755C47.4816 57.9755 42.1298 63.3273 42.1298 69.9054C42.1298 76.4834 47.4816 81.8353 54.0597 81.8353C60.6377 81.8353 65.9896 76.4834 65.9896 69.9054C65.9896 63.3273 60.6377 57.9755 54.0597 57.9755Z" fill="white"/>
</g>
<g id="Group_10">
<path id="Vector_20" d="M115.919 69.9118C115.919 76.6629 110.452 82.1302 103.701 82.1302C96.9497 82.1302 91.4824 76.6629 91.4824 69.9118C91.4824 63.1606 96.9497 57.6934 103.701 57.6934C110.452 57.6934 115.919 63.1606 115.919 69.9118Z" fill="#AEC5E7"/>
<path id="Vector_21" d="M103.691 82.4123C96.7957 82.4123 91.1914 76.8008 91.1914 69.9054C91.1914 63.01 96.8029 57.3984 103.691 57.3984C110.579 57.3984 116.198 63.01 116.198 69.9054C116.198 76.8008 110.587 82.4123 103.691 82.4123ZM103.691 57.9755C97.1131 57.9755 91.7612 63.3273 91.7612 69.9054C91.7612 76.4834 97.1131 81.8353 103.691 81.8353C110.269 81.8353 115.621 76.4834 115.621 69.9054C115.621 63.3273 110.269 57.9755 103.691 57.9755Z" fill="white"/>
</g>
<path id="Vector_22" d="M68.0957 56.778C67.8072 57.3333 67.4899 57.8455 67.2591 58.4297C66.9417 59.2231 67.0138 60.1247 67.1869 60.9325C67.5115 62.4039 69.5166 62.1947 69.9494 60.9325C70.3028 59.9011 70.7428 58.9057 71.0962 57.8815C70.173 57.6291 69.257 57.3766 68.3338 57.117C67.9875 58.2277 67.901 59.389 67.901 60.5502C67.901 61.185 68.341 61.762 68.954 61.9279C69.5166 62.0793 70.3173 61.8485 70.5697 61.2715C71.0674 60.1247 71.2477 58.1556 70.0648 57.3478C69.4662 56.9366 68.4131 57.1891 68.1029 57.8599C67.9659 58.1628 67.9154 58.3071 67.8938 58.6389C67.8433 59.4178 68.579 60.0742 69.3291 60.0742C70.1442 60.0742 70.714 59.4178 70.7645 58.6389C70.7645 58.6244 70.7645 58.61 70.7645 58.5956C70.6995 58.8336 70.6346 59.0788 70.5697 59.3169C70.5697 59.3169 70.5697 59.3024 70.5769 59.3024C69.9206 59.4755 69.2714 59.6486 68.615 59.8145C68.615 59.8145 68.6223 59.8145 68.6295 59.8217C68.4564 59.6486 68.2905 59.4828 68.1174 59.3096C67.901 58.8625 68.0092 59.05 68.0452 59.2087C68.1246 59.5549 68.0164 58.8697 68.0597 59.3024C68.0741 59.4467 68.0741 59.5909 68.0741 59.7352C68.0597 59.9155 68.0597 59.9299 68.0741 59.7929C68.0236 59.9588 68.0308 59.9732 68.0957 59.8362C68.9829 60.0742 69.8773 60.3194 70.7645 60.5575C70.7645 59.6342 70.8222 58.7687 71.0962 57.8815C71.327 57.1386 70.8294 56.3236 70.0937 56.1216C69.3075 55.9052 68.5862 56.3813 68.3338 57.1242C67.9803 58.1556 67.5404 59.151 67.1869 60.1752H69.9494C69.9061 59.966 69.8917 59.8001 69.8989 59.5837C69.8989 59.728 70.0792 59.05 69.9855 59.2664C70.1514 58.9057 70.3822 58.5739 70.5697 58.2277C71.4208 56.5904 68.9541 55.1479 68.0957 56.7852V56.778Z" fill="#002E6E"/>
<path id="Vector_23" d="M82.7862 56.7335C82.7862 56.8057 82.7862 56.885 82.779 56.9571C82.7574 57.325 82.8367 56.647 82.779 56.9788C82.7501 57.1447 82.6996 57.3106 82.6492 57.4764C82.5193 57.9308 82.4761 58.3564 82.5626 58.818C82.7646 59.9648 84.0268 60.4553 84.9861 60.7799C85.8733 61.0828 86.7965 60.2894 86.7965 59.4023V56.7263C85.8588 56.8561 84.9212 56.9788 83.9835 57.1086C84.1134 58.003 84.236 58.8901 84.3658 59.7845C84.4524 60.4048 85.1736 60.8376 85.7434 60.8376C86.3926 60.8376 86.9408 60.3976 87.1211 59.7845C87.2942 59.2075 87.3663 58.6016 87.323 58.003C87.3014 57.7289 87.2581 57.4548 87.2148 57.1807C87.2004 57.087 87.186 56.9932 87.1716 56.8994C87.2148 57.2024 87.1716 56.7696 87.1716 56.7335C87.1571 56.2791 86.9191 55.6877 86.4647 55.5001C85.7795 55.2116 85.1953 55.1251 84.5101 55.4857C84.3225 55.5867 84.1494 55.7454 84.0196 55.9113C83.9258 56.0267 83.8393 56.1421 83.7527 56.2575C83.7383 56.2791 83.7239 56.2936 83.7167 56.3152C83.8609 56.07 84.0845 55.9041 84.373 55.8175H85.1376C85.2962 55.9113 85.4621 56.0123 85.6208 56.106C85.0294 55.6011 84.1783 55.5218 83.594 56.106C83.0747 56.6253 82.9954 57.6279 83.594 58.1328C84.1711 58.6233 84.8635 58.7964 85.5631 58.4069C85.8516 58.2482 85.9959 58.0174 86.1906 57.765C86.3565 57.5558 85.9598 58.039 86.1401 57.8299C85.8588 58.1472 85.3828 58.1256 85.0294 57.9741C84.7914 57.563 84.5533 57.1519 84.3225 56.7407C84.337 57.1951 84.4235 57.6423 84.4884 58.0895C84.4524 57.8731 84.4884 58.4285 84.4884 58.4934C84.4884 58.681 84.4379 58.8252 84.373 59.0344H87.1355C87.0057 58.14 86.8831 57.2528 86.7532 56.3585C86.6667 55.7382 85.9454 55.3054 85.3756 55.3054C84.5966 55.3054 83.9402 55.9546 83.9402 56.7407V59.4167C84.5461 58.9551 85.152 58.4934 85.7506 58.039C85.7002 58.0174 85.1304 57.7938 85.3684 57.902C85.2385 57.8443 85.1159 57.7722 84.9933 57.6928C85.1808 57.8154 85.2097 57.8443 85.3467 58.1833C85.3107 58.039 85.3179 58.1112 85.3684 58.3925C85.3612 58.2699 85.4261 58.0535 85.3395 58.5295C85.4477 57.9236 85.6425 57.3683 85.6497 56.7407C85.6857 54.8943 82.8223 54.8943 82.7862 56.7407V56.7335Z" fill="#002E6E"/>
<path id="Vector_24" d="M61.1632 69.8112C66.3492 73.771 72.5522 72.2203 77.5001 68.6644H76.0576C81.2075 72.1698 89.769 72.8478 94.5944 68.4408C95.9576 67.193 93.9308 65.1734 92.5676 66.414C88.6871 69.9555 81.5321 68.9313 77.5001 66.1904C77.1106 65.9308 76.4398 65.9163 76.0576 66.1904C71.8742 69.1981 67.0488 70.7272 62.613 67.3373C61.1416 66.2193 59.7207 68.7077 61.1704 69.8112H61.1632Z" fill="#002E6E"/>
</g>
</g>
</g>
<defs>
<filter id="filter0_d_507_2371" x="0" y="0" width="155" height="185" filterUnits="userSpaceOnUse" color-interpolation-filters="sRGB">
<feFlood flood-opacity="0" result="BackgroundImageFix"/>
<feColorMatrix in="SourceAlpha" type="matrix" values="0 0 0 0 0 0 0 0 0 0 0 0 0 0 0 0 0 0 127 0" result="hardAlpha"/>
<feOffset dy="4"/>
<feGaussianBlur stdDeviation="2"/>
<feComposite in2="hardAlpha" operator="out"/>
<feColorMatrix type="matrix" values="0 0 0 0 0 0 0 0 0 0 0 0 0 0 0 0 0 0 0.25 0"/>
<feBlend mode="normal" in2="BackgroundImageFix" result="effect1_dropShadow_507_2371"/>
<feBlend mode="normal" in="SourceGraphic" in2="effect1_dropShadow_507_2371" result="shape"/>
</filter>
<filter id="filter1_d_507_2371" x="0" y="0" width="155" height="144" filterUnits="userSpaceOnUse" color-interpolation-filters="sRGB">
<feFlood flood-opacity="0" result="BackgroundImageFix"/>
<feColorMatrix in="SourceAlpha" type="matrix" values="0 0 0 0 0 0 0 0 0 0 0 0 0 0 0 0 0 0 127 0" result="hardAlpha"/>
<feOffset dy="4"/>
<feGaussianBlur stdDeviation="2"/>
<feComposite in2="hardAlpha" operator="out"/>
<feColorMatrix type="matrix" values="0 0 0 0 0 0 0 0 0 0 0 0 0 0 0 0 0 0 0.1 0"/>
<feBlend mode="normal" in2="BackgroundImageFix" result="effect1_dropShadow_507_2371"/>
<feBlend mode="normal" in="SourceGraphic" in2="effect1_dropShadow_507_2371" result="shape"/>
</filter>
</defs>
</svg>
