<svg width="375" height="767" viewBox="0 0 375 767" fill="none" xmlns="http://www.w3.org/2000/svg">
<path fill-rule="evenodd" clip-rule="evenodd" d="M95.0456 46.2812C101.165 42.736 107.963 40.7617 114.494 40.7617C117.547 40.7617 120.649 41.3754 123.705 42.5033C129.465 28.4604 141.058 18.8672 154.42 18.8672C157.633 18.8672 160.743 19.4216 163.695 20.4591C169.819 8.16624 180.641 0 192.97 0L193.099 0.000294955L193.227 0C205.556 0 216.378 8.16624 222.503 20.4591C225.454 19.4216 228.564 18.8672 231.777 18.8672C245.14 18.8672 256.732 28.4604 262.492 42.5033C265.548 41.3754 268.65 40.7617 271.704 40.7617C276.388 40.7617 281.209 41.7773 285.819 43.6598C292.309 33.5541 302.208 27.0977 313.298 27.0977C316.666 27.0977 319.925 27.6933 323.011 28.806C329.272 16.1814 340.367 7.78906 353.01 7.78906C372.559 7.78906 388.406 27.851 388.406 52.5986C388.406 53.4557 388.387 54.3071 388.35 55.1523H388.406V128.013H375V757C375 762.523 370.523 767 365 767L9.99999 767C4.47714 767 0 762.523 0 757L-1.14441e-05 128.013H-14V55.1523H-13.9435C-13.981 54.3071 -14 53.4557 -14 52.5986C-14 27.851 1.84721 7.78906 21.3957 7.78906C34.0393 7.78906 45.1346 16.1814 51.3952 28.806C54.4817 27.6933 57.7402 27.0977 61.1086 27.0977C73.9328 27.0977 85.1641 35.7315 91.3734 48.658C92.488 47.8563 93.6349 47.1094 94.8072 46.4204V46.2812H95.0456Z" fill="white"/>
</svg>
