<svg width="375" height="472" viewBox="0 0 375 472" fill="none" xmlns="http://www.w3.org/2000/svg">
<path fill-rule="evenodd" clip-rule="evenodd" d="M-1.33514e-05 110.749H-5V43.9102H-4.94337C-4.98095 43.1341 -5 42.3522 -5 41.5652C-5 18.8629 10.8472 0.458984 30.3957 0.458984C43.0394 0.458984 54.1347 8.15783 60.3953 19.7391C63.4818 18.7184 66.7402 18.172 70.1086 18.172C83.7824 18.172 95.6453 27.1765 101.54 40.3581C104.668 39.2989 107.843 38.7226 110.968 38.7226C114.247 38.7226 117.592 39.1688 120.888 40.0163C127.206 29.0801 137.188 22.0215 148.42 22.0215C151.632 22.0215 154.742 22.5988 157.694 23.6789C163.818 10.8762 174.641 2.37109 186.97 2.37109C187.013 2.37109 187.056 2.3712 187.099 2.3714C187.141 2.3712 187.184 2.37109 187.227 2.37109C199.557 2.37109 210.379 10.8762 216.504 23.6789C219.455 22.5988 222.565 22.0215 225.777 22.0215C237.936 22.0215 248.629 30.2926 254.797 42.7997C260.724 39.8783 267.2 38.2637 273.438 38.2637C276.564 38.2637 279.738 38.8399 282.866 39.8991C288.761 26.7175 300.624 17.713 314.298 17.713C317.666 17.713 320.924 18.2594 324.011 19.2801C330.272 7.69884 341.367 0 354.01 0C373.559 0 389.406 18.4039 389.406 41.1062C389.406 41.8932 389.387 42.6751 389.35 43.4512H389.406V110.29H375L375 462C375 467.523 370.523 472 365 472L9.99999 472C4.47714 472 0 467.523 -4.76837e-07 462L-1.33514e-05 110.749Z" fill="url(#paint0_linear_505_2472)"/>
<defs>
<linearGradient id="paint0_linear_505_2472" x1="-151.345" y1="49.861" x2="-150.832" y2="250.808" gradientUnits="userSpaceOnUse">
<stop stop-color="#FFFAFF"/>
<stop offset="0.405" stop-color="#C3D2FF"/>
</linearGradient>
</defs>
</svg>
