<svg width="87" height="66" viewBox="0 0 87 66" fill="none" xmlns="http://www.w3.org/2000/svg">
<g filter="url(#filter0_f_505_2768)">
<mask id="path-1-outside-1_505_2768" maskUnits="userSpaceOnUse" x="4" y="4" width="132" height="59" fill="black">
<rect fill="white" x="4" y="4" width="132" height="59"/>
<path fill-rule="evenodd" clip-rule="evenodd" d="M18.4161 27.911C21.5625 26.4602 25.0587 25.6522 28.4172 25.6522C29.9864 25.6522 31.5801 25.9029 33.1504 26.3638C36.1106 20.6268 42.0672 16.7079 48.933 16.7079C50.5841 16.7079 52.1825 16.9346 53.6994 17.3586C56.8467 12.3363 62.4076 9 68.7425 9L68.8088 9.00012L68.8752 9C75.2101 9 80.771 12.3363 83.9183 17.3586C85.4352 16.9346 87.0336 16.7079 88.6847 16.7079C95.5506 16.7079 101.507 20.6268 104.467 26.3638C106.038 25.9029 107.631 25.6522 109.2 25.6522C112.559 25.6522 116.055 26.4602 119.202 27.911H119.317V27.9643C125.311 30.7659 130.008 35.9064 130.008 42.234C130.008 51.8418 128.931 56.8499 119.317 56.924V57.0018H86.6484H75.6625C72.4208 55.7866 68.9622 55.123 65.6166 55.123C63.7202 55.123 61.7942 55.4261 59.8964 55.9831C56.3198 49.0504 49.1219 44.3145 40.8252 44.3145C38.8298 44.3145 36.898 44.5884 35.0649 45.1009C31.262 39.0318 24.5423 35 16.8872 35L16.8084 35.0001L16.7295 35C14.0047 35 11.3984 35.5108 9 36.4425C10.8233 32.7918 14.2685 29.8489 18.3011 27.9643V27.911H18.4161Z"/>
</mask>
<path fill-rule="evenodd" clip-rule="evenodd" d="M18.4161 27.911C21.5625 26.4602 25.0587 25.6522 28.4172 25.6522C29.9864 25.6522 31.5801 25.9029 33.1504 26.3638C36.1106 20.6268 42.0672 16.7079 48.933 16.7079C50.5841 16.7079 52.1825 16.9346 53.6994 17.3586C56.8467 12.3363 62.4076 9 68.7425 9L68.8088 9.00012L68.8752 9C75.2101 9 80.771 12.3363 83.9183 17.3586C85.4352 16.9346 87.0336 16.7079 88.6847 16.7079C95.5506 16.7079 101.507 20.6268 104.467 26.3638C106.038 25.9029 107.631 25.6522 109.2 25.6522C112.559 25.6522 116.055 26.4602 119.202 27.911H119.317V27.9643C125.311 30.7659 130.008 35.9064 130.008 42.234C130.008 51.8418 128.931 56.8499 119.317 56.924V57.0018H86.6484H75.6625C72.4208 55.7866 68.9622 55.123 65.6166 55.123C63.7202 55.123 61.7942 55.4261 59.8964 55.9831C56.3198 49.0504 49.1219 44.3145 40.8252 44.3145C38.8298 44.3145 36.898 44.5884 35.0649 45.1009C31.262 39.0318 24.5423 35 16.8872 35L16.8084 35.0001L16.7295 35C14.0047 35 11.3984 35.5108 9 36.4425C10.8233 32.7918 14.2685 29.8489 18.3011 27.9643V27.911H18.4161Z" fill="url(#paint0_linear_505_2768)" fill-opacity="0.4"/>
<path d="M18.4161 27.911V32.911C19.1389 32.911 19.8532 32.7542 20.5097 32.4515L18.4161 27.911ZM33.1504 26.3638L31.7424 31.1614C34.0411 31.836 36.4953 30.7854 37.5938 28.6565L33.1504 26.3638ZM53.6994 17.3586L52.3533 22.174C54.4874 22.7705 56.7595 21.8913 57.9362 20.0137L53.6994 17.3586ZM68.7425 9L68.7517 4H68.7425V9ZM68.8088 9.00012L68.7997 14.0001C68.8058 14.0001 68.8119 14.0001 68.818 14.0001L68.8088 9.00012ZM68.8752 9V3.99999L68.866 4.00001L68.8752 9ZM83.9183 17.3586L79.6815 20.0137C80.8582 21.8913 83.1303 22.7705 85.2644 22.174L83.9183 17.3586ZM104.467 26.3638L100.024 28.6565C101.122 30.7854 103.577 31.836 105.875 31.1614L104.467 26.3638ZM119.202 27.911L117.108 32.4515C117.764 32.7542 118.479 32.911 119.202 32.911V27.911ZM119.317 27.911H124.317C124.317 25.1495 122.078 22.911 119.317 22.911V27.911ZM119.317 27.9643H114.317C114.317 29.9059 115.441 31.672 117.2 32.494L119.317 27.9643ZM119.317 56.924L119.278 51.9241C116.532 51.9453 114.317 54.1776 114.317 56.924H119.317ZM119.317 57.0018V62.0018C122.078 62.0018 124.317 59.7632 124.317 57.0018H119.317ZM75.6625 57.0018L73.9074 61.6836C74.4686 61.894 75.0631 62.0018 75.6625 62.0018V57.0018ZM59.8964 55.9831L55.4529 58.2756C56.5514 60.4048 59.0058 61.4555 61.3046 60.7807L59.8964 55.9831ZM35.0649 45.1009L30.8279 47.7558C32.0046 49.6337 34.277 50.513 36.4112 49.9163L35.0649 45.1009ZM16.8872 35V30L16.8782 30L16.8872 35ZM16.8084 35.0001L16.7993 40.0001C16.8053 40.0001 16.8114 40.0001 16.8174 40.0001L16.8084 35.0001ZM16.7295 35L16.7386 30H16.7295V35ZM9 36.4425L4.52687 34.2084C3.60358 36.0571 3.91259 38.2832 5.30448 39.8105C6.69637 41.3377 8.88436 41.8514 10.8105 41.1032L9 36.4425ZM18.3011 27.9643L20.4181 32.494C22.1771 31.672 23.3011 29.9059 23.3011 27.9643H18.3011ZM18.3011 27.911V22.911C15.5397 22.911 13.3011 25.1495 13.3011 27.911H18.3011ZM28.4172 20.6522C24.2862 20.6522 20.0787 21.6384 16.3225 23.3704L20.5097 32.4515C23.0463 31.2819 25.8312 30.6522 28.4172 30.6522V20.6522ZM34.5584 21.5661C32.5854 20.9871 30.5167 20.6522 28.4172 20.6522V30.6522C29.4561 30.6522 30.5749 30.8188 31.7424 31.1614L34.5584 21.5661ZM48.933 11.7079C40.1113 11.7079 32.4855 16.7483 28.7071 24.071L37.5938 28.6565C39.7357 24.5054 44.023 21.7079 48.933 21.7079V11.7079ZM55.0455 12.5432C53.0948 11.9979 51.0436 11.7079 48.933 11.7079V21.7079C50.1245 21.7079 51.2703 21.8712 52.3533 22.174L55.0455 12.5432ZM68.7425 4C60.6046 4 53.4803 8.29234 49.4626 14.7035L57.9362 20.0137C60.2132 16.3802 64.2106 14 68.7425 14V4ZM68.818 4.00013L68.7517 4.00001L68.7333 14L68.7997 14.0001L68.818 4.00013ZM68.866 4.00001L68.7997 4.00013L68.818 14.0001L68.8844 14L68.866 4.00001ZM88.1551 14.7035C84.1374 8.29235 77.0131 4 68.8752 4V14C73.4071 14 77.4045 16.3802 79.6815 20.0137L88.1551 14.7035ZM88.6847 11.7079C86.5741 11.7079 84.5229 11.9979 82.5722 12.5432L85.2644 22.174C86.3475 21.8712 87.4932 21.7079 88.6847 21.7079V11.7079ZM108.911 24.071C105.132 16.7483 97.5064 11.7079 88.6847 11.7079V21.7079C93.5947 21.7079 97.882 24.5054 100.024 28.6565L108.911 24.071ZM109.2 20.6522C107.101 20.6522 105.032 20.9871 103.059 21.5661L105.875 31.1614C107.043 30.8188 108.162 30.6522 109.2 30.6522V20.6522ZM121.295 23.3704C117.539 21.6384 113.332 20.6522 109.2 20.6522V30.6522C111.786 30.6522 114.571 31.2819 117.108 32.4515L121.295 23.3704ZM119.317 22.911H119.202V32.911H119.317V22.911ZM124.317 27.9643V27.911H114.317V27.9643H124.317ZM135.008 42.234C135.008 33.2146 128.387 26.6843 121.433 23.4345L117.2 32.494C122.235 34.8475 125.008 38.5981 125.008 42.234H135.008ZM119.355 61.9238C124.979 61.8805 129.802 60.3342 132.56 55.7186C133.773 53.6876 134.344 51.4236 134.643 49.2552C134.942 47.0808 135.008 44.6859 135.008 42.234H125.008C125.008 44.5859 124.939 46.42 124.736 47.8891C124.533 49.3643 124.233 50.1585 123.975 50.5896C123.791 50.8986 123.269 51.8934 119.278 51.9241L119.355 61.9238ZM124.317 57.0018V56.924H114.317V57.0018H124.317ZM86.6484 62.0018H119.317V52.0018H86.6484V62.0018ZM75.6625 62.0018H86.6484V52.0018H75.6625V62.0018ZM77.4176 52.3199C73.6582 50.9107 69.6064 50.123 65.6166 50.123V60.123C68.318 60.123 71.1833 60.6625 73.9074 61.6836L77.4176 52.3199ZM65.6166 50.123C63.1898 50.123 60.7887 50.5103 58.4882 51.1856L61.3046 60.7807C62.7996 60.3419 64.2506 60.123 65.6166 60.123V50.123ZM64.3399 53.6907C59.9451 45.1719 51.0779 39.3145 40.8252 39.3145V49.3145C47.1659 49.3145 52.6945 52.9288 55.4529 58.2756L64.3399 53.6907ZM40.8252 39.3145C38.3702 39.3145 35.9856 39.6517 33.7186 40.2856L36.4112 49.9163C37.8105 49.525 39.2895 49.3145 40.8252 49.3145V39.3145ZM39.3018 42.4461C34.6286 34.9879 26.3454 30 16.8872 30V40C22.7392 40 27.8954 43.0756 30.8279 47.7558L39.3018 42.4461ZM16.8782 30L16.7993 30.0002L16.8174 40.0001L16.8963 40L16.8782 30ZM16.8174 30.0002L16.7386 30L16.7205 40L16.7993 40.0001L16.8174 30.0002ZM16.7295 30C13.3751 30 10.1555 30.6296 7.1895 31.7818L10.8105 41.1032C12.6413 40.392 14.6343 40 16.7295 40V30ZM16.1842 23.4345C11.4128 25.6644 6.97797 29.3008 4.52687 34.2084L13.4731 38.6766C14.6687 36.2829 17.1242 34.0334 20.4181 32.494L16.1842 23.4345ZM13.3011 27.911V27.9643H23.3011V27.911H13.3011ZM18.4161 22.911H18.3011V32.911H18.4161V22.911Z" fill="white" mask="url(#path-1-outside-1_505_2768)"/>
</g>
<defs>
<filter id="filter0_f_505_2768" x="0" y="0" width="139.008" height="66.002" filterUnits="userSpaceOnUse" color-interpolation-filters="sRGB">
<feFlood flood-opacity="0" result="BackgroundImageFix"/>
<feBlend mode="normal" in="SourceGraphic" in2="BackgroundImageFix" result="shape"/>
<feGaussianBlur stdDeviation="2" result="effect1_foregroundBlur_505_2768"/>
</filter>
<linearGradient id="paint0_linear_505_2768" x1="68.8086" y1="9" x2="68.8086" y2="57.0018" gradientUnits="userSpaceOnUse">
<stop stop-color="#D0BFFF"/>
<stop offset="1" stop-color="#C3D2FF"/>
</linearGradient>
</defs>
</svg>
