<svg width="172" height="78" viewBox="0 0 172 78" fill="none" xmlns="http://www.w3.org/2000/svg">
<g filter="url(#filter0_f_510_3698)">
<mask id="path-1-outside-1_510_3698" maskUnits="userSpaceOnUse" x="4" y="4" width="164" height="71" fill="black">
<rect fill="white" x="4" y="4" width="164" height="71"/>
<path fill-rule="evenodd" clip-rule="evenodd" d="M35.1789 29.8179C30.9566 29.8179 26.5613 30.8264 22.6049 32.6373H22.452V32.7078C14.9094 36.2097 8.99999 42.6354 8.99999 50.545C8.99999 62.555 10.3556 68.8151 22.452 68.9075V69.0007H63.5538H108.443H149.544V68.9075C161.641 68.8151 162.996 62.555 162.996 50.545C162.996 42.6354 157.087 36.2097 149.544 32.7078V32.6373H149.391C145.435 30.8264 141.04 29.8179 136.817 29.8179C134.843 29.8179 132.838 30.1314 130.862 30.7075C127.138 23.5352 119.643 18.6355 111.004 18.6355C108.927 18.6355 106.916 18.9187 105.008 19.4486C101.048 13.1705 94.0518 9 86.0814 9C86.0536 9 86.0259 9.00005 85.9982 9.00015C85.9705 9.00005 85.9427 9 85.915 9C77.9446 9 70.9481 13.1705 66.9884 19.4486C65.0802 18.9187 63.0695 18.6355 60.9925 18.6355C52.3534 18.6355 44.8585 23.5352 41.1346 30.7075C39.1588 30.1314 37.1534 29.8179 35.1789 29.8179Z"/>
</mask>
<path fill-rule="evenodd" clip-rule="evenodd" d="M35.1789 29.8179C30.9566 29.8179 26.5613 30.8264 22.6049 32.6373H22.452V32.7078C14.9094 36.2097 8.99999 42.6354 8.99999 50.545C8.99999 62.555 10.3556 68.8151 22.452 68.9075V69.0007H63.5538H108.443H149.544V68.9075C161.641 68.8151 162.996 62.555 162.996 50.545C162.996 42.6354 157.087 36.2097 149.544 32.7078V32.6373H149.391C145.435 30.8264 141.04 29.8179 136.817 29.8179C134.843 29.8179 132.838 30.1314 130.862 30.7075C127.138 23.5352 119.643 18.6355 111.004 18.6355C108.927 18.6355 106.916 18.9187 105.008 19.4486C101.048 13.1705 94.0518 9 86.0814 9C86.0536 9 86.0259 9.00005 85.9982 9.00015C85.9705 9.00005 85.9427 9 85.915 9C77.9446 9 70.9481 13.1705 66.9884 19.4486C65.0802 18.9187 63.0695 18.6355 60.9925 18.6355C52.3534 18.6355 44.8585 23.5352 41.1346 30.7075C39.1588 30.1314 37.1534 29.8179 35.1789 29.8179Z" fill="url(#paint0_linear_510_3698)" fill-opacity="0.4"/>
<path d="M22.6049 32.6373V37.6373C23.3231 37.6373 24.0329 37.4826 24.6859 37.1837L22.6049 32.6373ZM22.452 32.6373V27.6373C19.6906 27.6373 17.452 29.8758 17.452 32.6373H22.452ZM22.452 32.7078L24.5576 37.2428C26.3228 36.4233 27.452 34.6539 27.452 32.7078H22.452ZM22.452 68.9075H27.452C27.452 66.161 25.2367 63.9287 22.4902 63.9077L22.452 68.9075ZM22.452 69.0007H17.452C17.452 71.7621 19.6906 74.0007 22.452 74.0007V69.0007ZM149.544 69.0007V74.0007C152.306 74.0007 154.544 71.7621 154.544 69.0007H149.544ZM149.544 68.9075L149.506 63.9077C146.76 63.9287 144.544 66.161 144.544 68.9075H149.544ZM149.544 32.7078H144.544C144.544 34.6539 145.674 36.4233 147.439 37.2428L149.544 32.7078ZM149.544 32.6373H154.544C154.544 29.8758 152.306 27.6373 149.544 27.6373V32.6373ZM149.391 32.6373L147.31 37.1837C147.963 37.4826 148.673 37.6373 149.391 37.6373V32.6373ZM130.862 30.7075L126.424 33.0115C127.524 35.1306 129.969 36.176 132.262 35.5076L130.862 30.7075ZM105.008 19.4486L100.779 22.1159C101.956 23.9829 104.219 24.8569 106.346 24.2663L105.008 19.4486ZM85.9982 9.00015L85.98 14.0001C85.9921 14.0002 86.0043 14.0002 86.0164 14.0001L85.9982 9.00015ZM66.9884 19.4486L65.6506 24.2663C67.7774 24.8569 70.0399 23.9829 71.2175 22.1159L66.9884 19.4486ZM41.1346 30.7075L39.7349 35.5076C42.027 36.176 44.4719 35.1306 45.5721 33.0115L41.1346 30.7075ZM24.6859 37.1837C28.0349 35.6508 31.7233 34.8179 35.1789 34.8179V24.8179C30.1899 24.8179 25.0878 26.002 20.524 28.0909L24.6859 37.1837ZM22.452 37.6373H22.6049V27.6373H22.452V37.6373ZM27.452 32.7078V32.6373H17.452V32.7078H27.452ZM14 50.545C14 45.3451 17.9627 40.3047 24.5576 37.2428L20.3465 28.1727C11.8561 32.1147 3.99999 39.9256 3.99999 50.545H14ZM22.4902 63.9077C17.2457 63.8676 16.0331 62.547 15.4747 61.6185C15.0315 60.8815 14.6209 59.7082 14.3533 57.7805C14.0865 55.8581 14 53.4972 14 50.545H3.99999C3.99999 53.5979 4.08295 56.5233 4.4483 59.1553C4.81291 61.782 5.49729 64.4314 6.90502 66.7722C10.0485 71.9993 15.562 73.855 22.4138 73.9074L22.4902 63.9077ZM27.452 69.0007V68.9075H17.452V69.0007H27.452ZM63.5538 64.0007H22.452V74.0007H63.5538V64.0007ZM63.5538 74.0007H108.443V64.0007H63.5538V74.0007ZM108.443 74.0007H149.544V64.0007H108.443V74.0007ZM154.544 69.0007V68.9075H144.544V69.0007H154.544ZM149.583 73.9074C156.434 73.855 161.948 71.9993 165.091 66.7722C166.499 64.4314 167.183 61.782 167.548 59.1553C167.913 56.5233 167.996 53.5979 167.996 50.545H157.996C157.996 53.4972 157.91 55.8581 157.643 57.7804C157.375 59.7082 156.965 60.8815 156.522 61.6185C155.963 62.547 154.751 63.8676 149.506 63.9077L149.583 73.9074ZM167.996 50.545C167.996 39.9256 160.14 32.1147 151.65 28.1727L147.439 37.2428C154.034 40.3047 157.996 45.3451 157.996 50.545H167.996ZM154.544 32.7078V32.6373H144.544V32.7078H154.544ZM149.544 27.6373H149.391V37.6373H149.544V27.6373ZM151.472 28.0909C146.909 26.002 141.807 24.8179 136.817 24.8179V34.8179C140.273 34.8179 143.961 35.6508 147.31 37.1837L151.472 28.0909ZM136.817 24.8179C134.316 24.8179 131.839 25.2144 129.462 25.9075L132.262 35.5076C133.837 35.0483 135.37 34.8179 136.817 34.8179V24.8179ZM135.299 28.4036C130.749 19.6402 121.582 13.6355 111.004 13.6355V23.6355C117.704 23.6355 123.526 27.4302 126.424 33.0115L135.299 28.4036ZM111.004 13.6355C108.471 13.6355 106.01 13.9812 103.67 14.6308L106.346 24.2663C107.822 23.8562 109.383 23.6355 111.004 23.6355V13.6355ZM86.0814 14C92.2639 14 97.6963 17.2286 100.779 22.1159L109.237 16.7812C104.4 9.11245 95.8397 4 86.0814 4V14ZM86.0164 14.0001C86.0381 14 86.0597 14 86.0814 14V4C86.0476 4 86.0138 4.00006 85.98 4.00018L86.0164 14.0001ZM86.0164 4.00018C85.9826 4.00006 85.9488 4 85.915 4V14C85.9367 14 85.9583 14 85.98 14.0001L86.0164 4.00018ZM85.915 4C76.1567 4 67.5962 9.11245 62.7593 16.7812L71.2175 22.1159C74.3001 17.2286 79.7325 14 85.915 14V4ZM60.9925 23.6355C62.613 23.6355 64.1739 23.8562 65.6506 24.2663L68.3262 14.6308C65.9865 13.9812 63.5259 13.6355 60.9925 13.6355V23.6355ZM45.5721 33.0115C48.47 27.4302 54.2925 23.6355 60.9925 23.6355V13.6355C50.4143 13.6355 41.247 19.6402 36.6971 28.4036L45.5721 33.0115ZM35.1789 34.8179C36.6266 34.8179 38.1598 35.0483 39.7349 35.5076L42.5344 25.9075C40.1578 25.2144 37.6803 24.8179 35.1789 24.8179V34.8179Z" fill="white" mask="url(#path-1-outside-1_510_3698)"/>
</g>
<defs>
<filter id="filter0_f_510_3698" x="0" y="0" width="171.996" height="78" filterUnits="userSpaceOnUse" color-interpolation-filters="sRGB">
<feFlood flood-opacity="0" result="BackgroundImageFix"/>
<feBlend mode="normal" in="SourceGraphic" in2="BackgroundImageFix" result="shape"/>
<feGaussianBlur stdDeviation="2" result="effect1_foregroundBlur_510_3698"/>
</filter>
<linearGradient id="paint0_linear_510_3698" x1="85.9982" y1="9" x2="85.9982" y2="69.0007" gradientUnits="userSpaceOnUse">
<stop stop-color="#D0BFFF"/>
<stop offset="1" stop-color="#C3D2FF"/>
</linearGradient>
</defs>
</svg>
