<svg width="212" height="138" viewBox="0 0 212 138" fill="none" xmlns="http://www.w3.org/2000/svg">
<g filter="url(#filter0_f_505_2615)">
<mask id="path-1-outside-1_505_2615" maskUnits="userSpaceOnUse" x="-5" y="4" width="213" height="130" fill="black">
<rect fill="white" x="-5" y="4" width="213" height="130"/>
<path fill-rule="evenodd" clip-rule="evenodd" d="M64.7569 41.1579C64.7593 40.9995 64.7605 40.8408 64.7605 40.6818C64.7605 23.1844 50.2634 9 32.3803 9C14.4971 9 0 23.1844 0 40.6818C0 46.3226 1.50666 51.6191 4.14772 56.207H0V128.83H175.539V128.641C200.232 128.457 202.999 115.955 202.999 91.9691C202.999 76.1725 190.936 63.3396 175.539 56.3458V56.207H175.231C167.153 52.589 158.179 50.5742 149.558 50.5742C145.528 50.5742 141.434 51.2002 137.401 52.3507C129.799 38.0271 114.5 28.2422 96.8643 28.2422C84.3455 28.2422 73.0037 33.173 64.7569 41.1579Z"/>
</mask>
<path fill-rule="evenodd" clip-rule="evenodd" d="M64.7569 41.1579C64.7593 40.9995 64.7605 40.8408 64.7605 40.6818C64.7605 23.1844 50.2634 9 32.3803 9C14.4971 9 0 23.1844 0 40.6818C0 46.3226 1.50666 51.6191 4.14772 56.207H0V128.83H175.539V128.641C200.232 128.457 202.999 115.955 202.999 91.9691C202.999 76.1725 190.936 63.3396 175.539 56.3458V56.207H175.231C167.153 52.589 158.179 50.5742 149.558 50.5742C145.528 50.5742 141.434 51.2002 137.401 52.3507C129.799 38.0271 114.5 28.2422 96.8643 28.2422C84.3455 28.2422 73.0037 33.173 64.7569 41.1579Z" fill="white"/>
<path d="M64.7569 41.1579L59.7575 41.0825C59.727 43.1036 60.9165 44.9443 62.7717 45.7469C64.6269 46.5494 66.7828 46.1561 68.235 44.75L64.7569 41.1579ZM4.14772 56.207V61.207C5.93291 61.207 7.58267 60.2552 8.47625 58.7098C9.36983 57.1643 9.37165 55.2597 8.48103 53.7126L4.14772 56.207ZM0 56.207V51.207C-2.76142 51.207 -5 53.4456 -5 56.207H0ZM0 128.83H-5C-5 131.591 -2.76142 133.83 0 133.83L0 128.83ZM175.539 128.83V133.83C178.3 133.83 180.539 131.591 180.539 128.83H175.539ZM175.539 128.641L175.501 123.642C172.755 123.662 170.539 125.895 170.539 128.641H175.539ZM175.539 56.3458H170.539C170.539 58.307 171.685 60.0871 173.471 60.8981L175.539 56.3458ZM175.539 56.207H180.539C180.539 53.4456 178.3 51.207 175.539 51.207V56.207ZM175.231 56.207L173.187 60.7702C173.83 61.0582 174.527 61.207 175.231 61.207V56.207ZM137.401 52.3507L132.985 54.6947C134.091 56.779 136.504 57.8062 138.773 57.1589L137.401 52.3507ZM59.7605 40.6818C59.7605 40.8158 59.7595 40.9494 59.7575 41.0825L69.7564 41.2332C69.7591 41.0496 69.7605 40.8657 69.7605 40.6818H59.7605ZM32.3803 14C47.6053 14 59.7605 26.0481 59.7605 40.6818H69.7605C69.7605 20.3208 52.9215 4 32.3803 4V14ZM5 40.6818C5 26.0481 17.1552 14 32.3803 14V4C11.8391 4 -5 20.3208 -5 40.6818H5ZM8.48103 53.7126C6.26288 49.8593 5 45.4197 5 40.6818H-5C-5 47.2256 -3.24955 53.3789 -0.185589 58.7015L8.48103 53.7126ZM0 61.207H4.14772V51.207H0V61.207ZM5 128.83V56.207H-5V128.83H5ZM175.539 123.83H0V133.83H175.539V123.83ZM170.539 128.641V128.83H180.539V128.641H170.539ZM197.999 91.9691C197.999 97.9139 197.824 102.904 197.23 107.09C196.636 111.278 195.662 114.347 194.269 116.612C191.803 120.624 187.087 123.555 175.501 123.642L175.576 133.641C188.684 133.543 197.698 130.13 202.788 121.849C205.174 117.967 206.435 113.402 207.131 108.494C207.828 103.584 207.999 98.017 207.999 91.9691H197.999ZM173.471 60.8981C187.96 67.4793 197.999 78.9428 197.999 91.9691H207.999C207.999 73.4022 193.912 59.1999 177.607 51.7934L173.471 60.8981ZM170.539 56.207V56.3458H180.539V56.207H170.539ZM175.231 61.207H175.539V51.207H175.231V61.207ZM149.558 55.5742C157.43 55.5742 165.71 57.4212 173.187 60.7702L177.275 51.6438C168.597 47.7568 158.929 45.5742 149.558 45.5742V55.5742ZM138.773 57.1589C142.412 56.1208 146.043 55.5742 149.558 55.5742V45.5742C145.013 45.5742 140.457 46.2796 136.03 47.5425L138.773 57.1589ZM96.8643 33.2422C112.617 33.2422 126.235 41.9769 132.985 54.6947L141.818 50.0067C133.363 34.0772 116.382 23.2422 96.8643 23.2422V33.2422ZM68.235 44.75C75.5756 37.6424 85.6801 33.2422 96.8643 33.2422V23.2422C83.0109 23.2422 70.4318 28.7035 61.2789 37.5658L68.235 44.75Z" fill="url(#paint0_linear_505_2615)" fill-opacity="0.15" mask="url(#path-1-outside-1_505_2615)"/>
</g>
<defs>
<filter id="filter0_f_505_2615" x="-9" y="0" width="221" height="137.83" filterUnits="userSpaceOnUse" color-interpolation-filters="sRGB">
<feFlood flood-opacity="0" result="BackgroundImageFix"/>
<feBlend mode="normal" in="SourceGraphic" in2="BackgroundImageFix" result="shape"/>
<feGaussianBlur stdDeviation="2" result="effect1_foregroundBlur_505_2615"/>
</filter>
<linearGradient id="paint0_linear_505_2615" x1="101.5" y1="9" x2="160.004" y2="37.1941" gradientUnits="userSpaceOnUse">
<stop stop-color="#FF9BD2"/>
<stop offset="1" stop-color="#6C39FF"/>
</linearGradient>
</defs>
</svg>
