<svg width="152" height="76" viewBox="0 0 152 76" fill="none" xmlns="http://www.w3.org/2000/svg">
<g filter="url(#filter0_f_505_2624)">
<mask id="path-1-outside-1_505_2624" maskUnits="userSpaceOnUse" x="4.24805" y="4" width="158" height="69" fill="black">
<rect fill="white" x="4.24805" y="4" width="158" height="69"/>
<path fill-rule="evenodd" clip-rule="evenodd" d="M34.3905 29.123C30.3344 29.123 26.1122 30.0983 22.3118 31.8496H22.1675V31.9166C14.9235 35.3018 9.24805 41.5133 9.24805 49.1593C9.24805 60.769 10.55 66.8203 22.1675 66.9097V67.0009H61.6441H104.753H144.23V66.9097C155.848 66.8203 157.149 60.769 157.149 49.1593C157.149 41.5133 151.474 35.3018 144.23 31.9166V31.8496H144.086C140.285 30.0983 136.063 29.123 132.007 29.123C130.111 29.123 128.185 29.4261 126.287 29.9831C122.71 23.0504 115.512 18.3145 107.216 18.3145C105.22 18.3145 103.288 18.5884 101.455 19.1009C97.6524 13.0318 90.9327 9 83.2776 9C83.2513 9 83.225 9.00005 83.1988 9.00014C83.1725 9.00005 83.1462 9 83.1199 9C75.4648 9 68.7451 13.0318 64.9423 19.1009C63.1091 18.5884 61.1773 18.3145 59.1819 18.3145C50.8852 18.3145 43.6873 23.0504 40.1107 29.9831C38.213 29.4261 36.2869 29.123 34.3905 29.123Z"/>
</mask>
<path fill-rule="evenodd" clip-rule="evenodd" d="M34.3905 29.123C30.3344 29.123 26.1122 30.0983 22.3118 31.8496H22.1675V31.9166C14.9235 35.3018 9.24805 41.5133 9.24805 49.1593C9.24805 60.769 10.55 66.8203 22.1675 66.9097V67.0009H61.6441H104.753H144.23V66.9097C155.848 66.8203 157.149 60.769 157.149 49.1593C157.149 41.5133 151.474 35.3018 144.23 31.9166V31.8496H144.086C140.285 30.0983 136.063 29.123 132.007 29.123C130.111 29.123 128.185 29.4261 126.287 29.9831C122.71 23.0504 115.512 18.3145 107.216 18.3145C105.22 18.3145 103.288 18.5884 101.455 19.1009C97.6524 13.0318 90.9327 9 83.2776 9C83.2513 9 83.225 9.00005 83.1988 9.00014C83.1725 9.00005 83.1462 9 83.1199 9C75.4648 9 68.7451 13.0318 64.9423 19.1009C63.1091 18.5884 61.1773 18.3145 59.1819 18.3145C50.8852 18.3145 43.6873 23.0504 40.1107 29.9831C38.213 29.4261 36.2869 29.123 34.3905 29.123Z" fill="white"/>
<path d="M22.3118 31.8496V36.8496C23.0343 36.8496 23.7482 36.693 24.4044 36.3907L22.3118 31.8496ZM22.1675 31.8496V26.8496C19.4061 26.8496 17.1675 29.0882 17.1675 31.8496H22.1675ZM22.1675 31.9166L24.2843 36.4464C26.0434 35.6243 27.1675 33.8582 27.1675 31.9166H22.1675ZM22.1675 66.9097H27.1675C27.1675 64.1633 24.9523 61.931 22.206 61.9098L22.1675 66.9097ZM22.1675 67.0009H17.1675C17.1675 69.7623 19.4061 72.0009 22.1675 72.0009V67.0009ZM144.23 67.0009V72.0009C146.991 72.0009 149.23 69.7623 149.23 67.0009H144.23ZM144.23 66.9097L144.192 61.9098C141.445 61.931 139.23 64.1633 139.23 66.9097H144.23ZM144.23 31.9166H139.23C139.23 33.8582 140.354 35.6243 142.113 36.4464L144.23 31.9166ZM144.23 31.8496H149.23C149.23 29.0882 146.991 26.8496 144.23 26.8496V31.8496ZM144.086 31.8496L141.993 36.3907C142.649 36.693 143.363 36.8496 144.086 36.8496V31.8496ZM126.287 29.9831L121.843 32.2756C122.942 34.4048 125.396 35.4555 127.695 34.7807L126.287 29.9831ZM101.455 19.1009L97.2183 21.7558C98.395 23.6337 100.667 24.513 102.802 23.9163L101.455 19.1009ZM83.1988 9.00014L83.1807 14.0001C83.1927 14.0002 83.2048 14.0002 83.2168 14.0001L83.1988 9.00014ZM64.9423 19.1009L63.5959 23.9163C65.7302 24.513 68.0025 23.6337 69.1792 21.7558L64.9423 19.1009ZM40.1107 29.9831L38.7025 34.7807C41.0013 35.4555 43.4558 34.4048 44.5542 32.2756L40.1107 29.9831ZM24.4044 36.3907C27.5953 34.9202 31.1066 34.123 34.3905 34.123V24.123C29.5623 24.123 24.6291 25.2764 20.2192 27.3086L24.4044 36.3907ZM22.1675 36.8496H22.3118V26.8496H22.1675V36.8496ZM27.1675 31.9166V31.8496H17.1675V31.9166H27.1675ZM14.248 49.1593C14.248 44.2051 17.9993 39.3834 24.2843 36.4464L20.0507 27.3868C11.8477 31.2201 4.24805 38.8214 4.24805 49.1593H14.248ZM22.206 61.9098C17.2137 61.8714 16.1345 60.6119 15.6434 59.79C15.2325 59.1024 14.8419 57.9897 14.5861 56.135C14.3312 54.2863 14.248 52.0117 14.248 49.1593H4.24805C4.24805 52.1117 4.32767 54.9472 4.67988 57.5011C5.03126 60.0491 5.6922 62.6316 7.05901 64.9192C10.1233 70.0477 15.5038 71.8586 22.129 71.9095L22.206 61.9098ZM27.1675 67.0009V66.9097H17.1675V67.0009H27.1675ZM61.6441 62.0009H22.1675V72.0009H61.6441V62.0009ZM61.6441 72.0009H104.753V62.0009H61.6441V72.0009ZM104.753 72.0009H144.23V62.0009H104.753V72.0009ZM149.23 67.0009V66.9097H139.23V67.0009H149.23ZM144.268 71.9095C150.894 71.8586 156.274 70.0477 159.339 64.9192C160.705 62.6316 161.366 60.0491 161.718 57.5011C162.07 54.9472 162.149 52.1117 162.149 49.1593H152.149C152.149 52.0117 152.066 54.2863 151.811 56.135C151.556 57.9897 151.165 59.1024 150.754 59.7901C150.263 60.6119 149.184 61.8714 144.192 61.9098L144.268 71.9095ZM162.149 49.1593C162.149 38.8214 154.55 31.2201 146.347 27.3868L142.113 36.4464C148.398 39.3834 152.149 44.2051 152.149 49.1593H162.149ZM149.23 31.9166V31.8496H139.23V31.9166H149.23ZM144.23 26.8496H144.086V36.8496H144.23V26.8496ZM146.178 27.3086C141.768 25.2764 136.835 24.123 132.007 24.123V34.123C135.291 34.123 138.802 34.9202 141.993 36.3907L146.178 27.3086ZM132.007 24.123C129.58 24.123 127.179 24.5103 124.879 25.1855L127.695 34.7807C129.19 34.3419 130.641 34.123 132.007 34.123V24.123ZM130.73 27.6907C126.335 19.1719 117.468 13.3145 107.216 13.3145V23.3145C113.556 23.3145 119.085 26.9288 121.843 32.2756L130.73 27.6907ZM107.216 13.3145C104.761 13.3145 102.376 13.6517 100.109 14.2856L102.802 23.9163C104.201 23.525 105.68 23.3145 107.216 23.3145V13.3145ZM83.2776 14C89.1296 14 94.2858 17.0756 97.2183 21.7558L105.692 16.4461C101.019 8.98794 92.7358 4 83.2776 4V14ZM83.2168 14.0001C83.2371 14 83.2573 14 83.2776 14V4C83.2453 4 83.213 4.00006 83.1807 4.00018L83.2168 14.0001ZM83.2168 4.00018C83.1845 4.00006 83.1522 4 83.1199 4V14C83.1402 14 83.1604 14 83.1807 14.0001L83.2168 4.00018ZM83.1199 4C73.6617 4 65.3785 8.98794 60.7053 16.4461L69.1792 21.7558C72.1118 17.0756 77.2679 14 83.1199 14V4ZM59.1819 23.3145C60.7176 23.3145 62.1966 23.525 63.5959 23.9163L66.2886 14.2856C64.0215 13.6517 61.6369 13.3145 59.1819 13.3145V23.3145ZM44.5542 32.2756C47.3126 26.9288 52.8412 23.3145 59.1819 23.3145V13.3145C48.9292 13.3145 40.0621 19.1719 35.6672 27.6907L44.5542 32.2756ZM34.3905 34.123C35.7565 34.123 37.2075 34.3419 38.7025 34.7807L41.5189 25.1855C39.2184 24.5103 36.8173 24.123 34.3905 24.123V34.123Z" fill="url(#paint0_linear_505_2624)" fill-opacity="0.4" mask="url(#path-1-outside-1_505_2624)"/>
</g>
<defs>
<filter id="filter0_f_505_2624" x="0.248047" y="0" width="165.902" height="76" filterUnits="userSpaceOnUse" color-interpolation-filters="sRGB">
<feFlood flood-opacity="0" result="BackgroundImageFix"/>
<feBlend mode="normal" in="SourceGraphic" in2="BackgroundImageFix" result="shape"/>
<feGaussianBlur stdDeviation="2" result="effect1_foregroundBlur_505_2624"/>
</filter>
<linearGradient id="paint0_linear_505_2624" x1="83.1988" y1="9" x2="83.1988" y2="67.0009" gradientUnits="userSpaceOnUse">
<stop stop-color="#D0BFFF"/>
<stop offset="1" stop-color="#C3D2FF"/>
</linearGradient>
</defs>
</svg>
