<svg width="138" height="97" viewBox="0 0 138 97" fill="none" xmlns="http://www.w3.org/2000/svg">
<g filter="url(#filter0_f_505_2459)">
<mask id="path-1-outside-1_505_2459" maskUnits="userSpaceOnUse" x="4" y="4.58594" width="212" height="89" fill="black">
<rect fill="white" x="4" y="4.58594" width="212" height="89"/>
<path fill-rule="evenodd" clip-rule="evenodd" d="M43.2136 36.793C37.6962 36.793 31.9529 38.1105 26.7828 40.4766H26.5812V40.5695C16.7234 45.1462 9 53.5441 9 63.8816C9 79.5778 10.7717 87.7591 26.5812 87.8797V88.0004H80.2974H138.963H192.68V87.8797C208.489 87.7591 210.261 79.5778 210.261 63.8816C210.261 53.5441 202.537 45.1462 192.68 40.5695V40.4766H192.478C187.308 38.1105 181.565 36.793 176.047 36.793C173.467 36.793 170.846 37.2027 168.264 37.9557C163.397 28.5816 153.601 22.1777 142.311 22.1777C139.596 22.1777 136.968 22.5479 134.474 23.2404C129.299 15.036 120.156 9.58594 109.739 9.58594C109.703 9.58594 109.667 9.586 109.63 9.58614C109.594 9.586 109.558 9.58594 109.521 9.58594C99.1052 9.58594 89.9617 15.036 84.7866 23.2404C82.2927 22.5479 79.6647 22.1777 76.9502 22.1777C65.6593 22.1777 55.8639 28.5816 50.9972 37.9557C48.4149 37.2027 45.7941 36.793 43.2136 36.793Z"/>
</mask>
<path fill-rule="evenodd" clip-rule="evenodd" d="M43.2136 36.793C37.6962 36.793 31.9529 38.1105 26.7828 40.4766H26.5812V40.5695C16.7234 45.1462 9 53.5441 9 63.8816C9 79.5778 10.7717 87.7591 26.5812 87.8797V88.0004H80.2974H138.963H192.68V87.8797C208.489 87.7591 210.261 79.5778 210.261 63.8816C210.261 53.5441 202.537 45.1462 192.68 40.5695V40.4766H192.478C187.308 38.1105 181.565 36.793 176.047 36.793C173.467 36.793 170.846 37.2027 168.264 37.9557C163.397 28.5816 153.601 22.1777 142.311 22.1777C139.596 22.1777 136.968 22.5479 134.474 23.2404C129.299 15.036 120.156 9.58594 109.739 9.58594C109.703 9.58594 109.667 9.586 109.63 9.58614C109.594 9.586 109.558 9.58594 109.521 9.58594C99.1052 9.58594 89.9617 15.036 84.7866 23.2404C82.2927 22.5479 79.6647 22.1777 76.9502 22.1777C65.6593 22.1777 55.8639 28.5816 50.9972 37.9557C48.4149 37.2027 45.7941 36.793 43.2136 36.793Z" fill="white"/>
<path d="M26.7828 40.4766V45.4766C27.5009 45.4766 28.2106 45.3219 28.8635 45.0231L26.7828 40.4766ZM26.5812 40.4766V35.4766C23.8198 35.4766 21.5812 37.7151 21.5812 40.4766H26.5812ZM26.5812 40.5695L28.6867 45.1046C30.4519 44.2851 31.5812 42.5157 31.5812 40.5695H26.5812ZM26.5812 87.8797H31.5812C31.5812 85.1332 29.3658 82.9008 26.6193 82.8799L26.5812 87.8797ZM26.5812 88.0004H21.5812C21.5812 90.7618 23.8198 93.0004 26.5812 93.0004V88.0004ZM192.68 88.0004V93.0004C195.441 93.0004 197.68 90.7618 197.68 88.0004H192.68ZM192.68 87.8797L192.641 82.8799C189.895 82.9008 187.68 85.1332 187.68 87.8797H192.68ZM192.68 40.5695H187.68C187.68 42.5157 188.809 44.2851 190.574 45.1046L192.68 40.5695ZM192.68 40.4766H197.68C197.68 37.7151 195.441 35.4766 192.68 35.4766V40.4766ZM192.478 40.4766L190.397 45.0231C191.05 45.3219 191.76 45.4766 192.478 45.4766V40.4766ZM168.264 37.9557L163.826 40.2595C164.926 42.3786 167.371 43.4242 169.663 42.7558L168.264 37.9557ZM134.474 23.2404L130.245 25.908C131.423 27.7749 133.685 28.6487 135.812 28.0581L134.474 23.2404ZM109.63 9.58614L109.612 14.5861C109.624 14.5861 109.636 14.5861 109.649 14.5861L109.63 9.58614ZM84.7866 23.2404L83.4488 28.0581C85.5756 28.6487 87.838 27.7749 89.0156 25.908L84.7866 23.2404ZM50.9972 37.9557L49.5974 42.7558C51.8897 43.4242 54.3346 42.3786 55.4348 40.2595L50.9972 37.9557ZM28.8635 45.0231C33.4262 42.935 38.4628 41.793 43.2136 41.793V31.793C36.9296 31.793 30.4795 33.2861 24.7022 35.93L28.8635 45.0231ZM26.5812 45.4766H26.7828V35.4766H26.5812V45.4766ZM31.5812 40.5695V40.4766H21.5812V40.5695H31.5812ZM14 63.8816C14 56.2539 19.7766 49.2412 28.6867 45.1046L24.4757 36.0344C13.6701 41.0511 4 50.8343 4 63.8816H14ZM26.6193 82.8799C19.5182 82.8257 17.2734 81.0177 16.1469 79.1446C15.4196 77.9353 14.841 76.1754 14.4764 73.5487C14.1125 70.9274 14 67.7553 14 63.8816H4C4 67.8559 4.10896 71.5926 4.57134 74.9236C5.03297 78.2492 5.88541 81.4853 7.57724 84.2984C11.289 90.4702 17.8347 92.8131 26.543 92.8796L26.6193 82.8799ZM31.5812 88.0004V87.8797H21.5812V88.0004H31.5812ZM80.2974 83.0004H26.5812V93.0004H80.2974V83.0004ZM80.2974 93.0004H138.963V83.0004H80.2974V93.0004ZM138.963 93.0004H192.68V83.0004H138.963V93.0004ZM197.68 88.0004V87.8797H187.68V88.0004H197.68ZM192.718 92.8796C201.426 92.8131 207.972 90.4702 211.684 84.2984C213.375 81.4853 214.228 78.2492 214.689 74.9236C215.152 71.5926 215.261 67.8559 215.261 63.8816H205.261C205.261 67.7553 205.148 70.9274 204.784 73.5487C204.42 76.1754 203.841 77.9353 203.114 79.1446C201.987 81.0177 199.743 82.8257 192.641 82.8799L192.718 92.8796ZM215.261 63.8816C215.261 50.8343 205.591 41.0511 194.785 36.0344L190.574 45.1046C199.484 49.2412 205.261 56.2539 205.261 63.8816H215.261ZM197.68 40.5695V40.4766H187.68V40.5695H197.68ZM192.68 35.4766H192.478V45.4766H192.68V35.4766ZM194.559 35.93C188.781 33.2861 182.331 31.793 176.047 31.793V41.793C180.798 41.793 185.835 42.935 190.397 45.0231L194.559 35.93ZM176.047 31.793C172.94 31.793 169.847 32.2857 166.864 33.1556L169.663 42.7558C171.845 42.1196 173.993 41.793 176.047 41.793V31.793ZM172.701 35.6518C167.008 24.6867 155.541 17.1777 142.311 17.1777V27.1777C151.662 27.1777 159.785 32.4765 163.826 40.2595L172.701 35.6518ZM142.311 17.1777C139.14 17.1777 136.062 17.6103 133.136 18.4227L135.812 28.0581C137.874 27.4854 140.052 27.1777 142.311 27.1777V17.1777ZM109.739 14.5859C118.368 14.5859 125.947 19.0942 130.245 25.908L138.703 20.5729C132.651 10.9779 121.943 4.58594 109.739 4.58594V14.5859ZM109.649 14.5861C109.679 14.586 109.709 14.5859 109.739 14.5859V4.58594C109.697 4.58594 109.654 4.58601 109.612 4.58617L109.649 14.5861ZM109.649 4.58617C109.606 4.58601 109.564 4.58594 109.521 4.58594V14.5859C109.552 14.5859 109.582 14.586 109.612 14.5861L109.649 4.58617ZM109.521 4.58594C97.3174 4.58594 86.6099 10.9779 80.5576 20.5729L89.0156 25.908C93.3136 19.0942 100.893 14.5859 109.521 14.5859V4.58594ZM76.9502 27.1777C79.2082 27.1777 81.3864 27.4854 83.4488 28.0581L86.1245 18.4227C83.1991 17.6103 80.1211 17.1777 76.9502 17.1777V27.1777ZM55.4348 40.2595C59.4754 32.4765 67.5984 27.1777 76.9502 27.1777V17.1777C63.7201 17.1777 52.2523 24.6867 46.5596 35.6518L55.4348 40.2595ZM43.2136 41.793C45.2672 41.793 47.4159 42.1196 49.5974 42.7558L52.3969 33.1556C49.4139 32.2857 46.3209 31.793 43.2136 31.793V41.793Z" fill="url(#paint0_linear_505_2459)" fill-opacity="0.4" mask="url(#path-1-outside-1_505_2459)"/>
</g>
<defs>
<filter id="filter0_f_505_2459" x="0" y="0.585938" width="219.262" height="96.4141" filterUnits="userSpaceOnUse" color-interpolation-filters="sRGB">
<feFlood flood-opacity="0" result="BackgroundImageFix"/>
<feBlend mode="normal" in="SourceGraphic" in2="BackgroundImageFix" result="shape"/>
<feGaussianBlur stdDeviation="2" result="effect1_foregroundBlur_505_2459"/>
</filter>
<linearGradient id="paint0_linear_505_2459" x1="109.63" y1="9.58594" x2="109.63" y2="88.0004" gradientUnits="userSpaceOnUse">
<stop stop-color="#D0BFFF"/>
<stop offset="1" stop-color="#C3D2FF"/>
</linearGradient>
</defs>
</svg>
