<svg width="69" height="51" viewBox="0 0 69 51" fill="none" xmlns="http://www.w3.org/2000/svg">
<g filter="url(#filter0_f_510_3709)">
<mask id="path-1-outside-1_510_3709" maskUnits="userSpaceOnUse" x="-28.9961" y="4.06641" width="94" height="43" fill="black">
<rect fill="white" x="-28.9961" y="4.06641" width="94" height="43"/>
<path fill-rule="evenodd" clip-rule="evenodd" d="M-9.71681 20.4218C-12.0197 20.4218 -14.4169 20.9717 -16.5748 21.9594H-16.6591V21.9982C-20.773 23.9084 -23.9961 27.4132 -23.9961 31.7274C-23.9961 38.2781 -23.2567 41.6926 -16.6591 41.7432V41.7938H5.75787H30.2444H52.6614V41.7432C59.259 41.6926 59.9984 38.2781 59.9984 31.7274C59.9984 27.4132 56.7753 23.9084 52.6614 21.9982V21.9594H52.5771C50.4192 20.9717 48.022 20.4218 45.7191 20.4218C44.6423 20.4218 43.5487 20.5927 42.4712 20.9068C40.44 16.9946 36.3519 14.322 31.6397 14.322C30.5073 14.322 29.4111 14.4763 28.3707 14.7651C26.2108 11.341 22.3948 9.06641 18.0475 9.06641C18.0321 9.06641 18.0166 9.06644 18.0011 9.06649C17.9857 9.06644 17.9702 9.06641 17.9548 9.06641C13.6077 9.06641 9.79172 11.3408 7.63179 14.7647C6.59181 14.4762 5.49597 14.322 4.36412 14.322C-0.348293 14.322 -4.43652 16.9948 -6.46763 20.9072C-7.54557 20.5928 -8.63961 20.4218 -9.71681 20.4218Z"/>
</mask>
<path fill-rule="evenodd" clip-rule="evenodd" d="M-9.71681 20.4218C-12.0197 20.4218 -14.4169 20.9717 -16.5748 21.9594H-16.6591V21.9982C-20.773 23.9084 -23.9961 27.4132 -23.9961 31.7274C-23.9961 38.2781 -23.2567 41.6926 -16.6591 41.7432V41.7938H5.75787H30.2444H52.6614V41.7432C59.259 41.6926 59.9984 38.2781 59.9984 31.7274C59.9984 27.4132 56.7753 23.9084 52.6614 21.9982V21.9594H52.5771C50.4192 20.9717 48.022 20.4218 45.7191 20.4218C44.6423 20.4218 43.5487 20.5927 42.4712 20.9068C40.44 16.9946 36.3519 14.322 31.6397 14.322C30.5073 14.322 29.4111 14.4763 28.3707 14.7651C26.2108 11.341 22.3948 9.06641 18.0475 9.06641C18.0321 9.06641 18.0166 9.06644 18.0011 9.06649C17.9857 9.06644 17.9702 9.06641 17.9548 9.06641C13.6077 9.06641 9.79172 11.3408 7.63179 14.7647C6.59181 14.4762 5.49597 14.322 4.36412 14.322C-0.348293 14.322 -4.43652 16.9948 -6.46763 20.9072C-7.54557 20.5928 -8.63961 20.4218 -9.71681 20.4218Z" fill="url(#paint0_linear_510_3709)" fill-opacity="0.4"/>
<path d="M-16.5748 21.9594V26.9594C-15.8567 26.9594 -15.147 26.8047 -14.494 26.5058L-16.5748 21.9594ZM-16.6591 21.9594V16.9594C-19.4205 16.9594 -21.6591 19.198 -21.6591 21.9594H-16.6591ZM-16.6591 21.9982L-14.5534 26.5332C-12.7883 25.7136 -11.6591 23.9443 -11.6591 21.9982H-16.6591ZM-16.6591 41.7432H-11.6591C-11.6591 38.9967 -13.8744 36.7644 -16.6208 36.7433L-16.6591 41.7432ZM-16.6591 41.7938H-21.6591C-21.6591 44.5552 -19.4205 46.7938 -16.6591 46.7938V41.7938ZM52.6614 41.7938V46.7938C55.4228 46.7938 57.6614 44.5552 57.6614 41.7938H52.6614ZM52.6614 41.7432L52.623 36.7433C49.8766 36.7644 47.6614 38.9967 47.6614 41.7432H52.6614ZM52.6614 21.9982H47.6614C47.6614 23.9443 48.7906 25.7136 50.5557 26.5332L52.6614 21.9982ZM52.6614 21.9594H57.6614C57.6614 19.198 55.4228 16.9594 52.6614 16.9594V21.9594ZM52.5771 21.9594L50.4963 26.5058C51.1493 26.8047 51.859 26.9594 52.5771 26.9594V21.9594ZM42.4712 20.9068L38.0336 23.2108C39.1338 25.3297 41.5786 26.3753 43.8707 25.707L42.4712 20.9068ZM28.3707 14.7651L24.1418 17.4327C25.3192 19.2993 27.5813 20.1732 29.7079 19.583L28.3707 14.7651ZM18.0011 9.06649L17.9825 14.0665C17.9949 14.0665 18.0073 14.0665 18.0198 14.0665L18.0011 9.06649ZM7.63179 14.7647L6.29513 19.5828C8.42155 20.1727 10.6833 19.2989 11.8606 17.4325L7.63179 14.7647ZM-6.46763 20.9072L-7.86761 25.7072C-5.57532 26.3758 -3.13018 25.3302 -2.02999 23.211L-6.46763 20.9072ZM-14.494 26.5058C-12.9435 25.7962 -11.253 25.4218 -9.71681 25.4218V15.4218C-12.7864 15.4218 -15.8904 16.1473 -18.6556 17.4129L-14.494 26.5058ZM-16.6591 26.9594H-16.5748V16.9594H-16.6591V26.9594ZM-11.6591 21.9982V21.9594H-21.6591V21.9982H-11.6591ZM-18.9961 31.7274C-18.9961 30.1228 -17.7196 28.0033 -14.5534 26.5332L-18.7647 17.4632C-23.8264 19.8134 -28.9961 24.7035 -28.9961 31.7274H-18.9961ZM-16.6208 36.7433C-17.8895 36.7336 -18.444 36.5579 -18.6105 36.4861C-18.674 36.4587 -18.6538 36.4585 -18.5997 36.5055C-18.5444 36.5536 -18.5167 36.5962 -18.5168 36.5961C-18.5394 36.5586 -18.7011 36.254 -18.825 35.3614C-18.9481 34.4741 -18.9961 33.3147 -18.9961 31.7274H-28.9961C-28.9961 33.4154 -28.9517 35.1393 -28.73 36.7362C-28.5091 38.3278 -28.0736 40.1083 -27.0866 41.7496C-24.7846 45.5777 -20.7999 46.7116 -16.6974 46.743L-16.6208 36.7433ZM-11.6591 41.7938V41.7432H-21.6591V41.7938H-11.6591ZM5.75787 36.7938H-16.6591V46.7938H5.75787V36.7938ZM5.75787 46.7938H30.2444V36.7938H5.75787V46.7938ZM30.2444 46.7938H52.6614V36.7938H30.2444V46.7938ZM57.6614 41.7938V41.7432H47.6614V41.7938H57.6614ZM52.6997 46.743C56.8022 46.7116 60.7868 45.5777 63.0889 41.7496C64.0759 40.1083 64.5114 38.3278 64.7323 36.7362C64.9539 35.1393 64.9984 33.4154 64.9984 31.7274H54.9984C54.9984 33.3147 54.9504 34.4741 54.8272 35.3614C54.7033 36.254 54.5416 36.5586 54.5191 36.5961C54.519 36.5962 54.5466 36.5536 54.602 36.5055C54.6561 36.4585 54.6763 36.4587 54.6128 36.4861C54.4462 36.5579 53.8918 36.7336 52.623 36.7433L52.6997 46.743ZM64.9984 31.7274C64.9984 24.7035 59.8287 19.8134 54.767 17.4632L50.5557 26.5332C53.7219 28.0033 54.9984 30.1228 54.9984 31.7274H64.9984ZM57.6614 21.9982V21.9594H47.6614V21.9982H57.6614ZM52.6614 16.9594H52.5771V26.9594H52.6614V16.9594ZM54.6579 17.4129C51.8927 16.1473 48.7887 15.4218 45.7191 15.4218V25.4218C47.2553 25.4218 48.9457 25.7962 50.4963 26.5058L54.6579 17.4129ZM45.7191 15.4218C44.1156 15.4218 42.5499 15.6757 41.0717 16.1067L43.8707 25.707C44.5475 25.5097 45.1691 25.4218 45.7191 25.4218V15.4218ZM46.9088 18.6029C44.0516 13.0997 38.291 9.32202 31.6397 9.32202V19.322C34.4128 19.322 36.8285 20.8895 38.0336 23.2108L46.9088 18.6029ZM31.6397 9.32202C30.0511 9.32202 28.5052 9.53876 27.0335 9.94721L29.7079 19.583C30.317 19.4139 30.9635 19.322 31.6397 19.322V9.32202ZM18.0475 14.0664C20.607 14.0664 22.859 15.3991 24.1418 17.4327L32.5997 12.0975C29.5626 7.28285 24.1826 4.06641 18.0475 4.06641V14.0664ZM18.0198 14.0665C18.029 14.0664 18.0383 14.0664 18.0475 14.0664V4.06641C18.0259 4.06641 18.0042 4.06645 17.9825 4.06653L18.0198 14.0665ZM18.0198 4.06653C17.9981 4.06645 17.9764 4.06641 17.9548 4.06641V14.0664C17.964 14.0664 17.9733 14.0664 17.9825 14.0665L18.0198 4.06653ZM17.9548 4.06641C11.8199 4.06641 6.44003 7.28263 3.40293 12.097L11.8606 17.4325C13.1434 15.399 15.3954 14.0664 17.9548 14.0664V4.06641ZM4.36412 19.322C5.03996 19.322 5.68629 19.4138 6.29513 19.5828L8.96844 9.94671C7.49733 9.53858 5.95198 9.32202 4.36412 9.32202V19.322ZM-2.02999 23.211C-0.824886 20.8897 1.59088 19.322 4.36412 19.322V9.32202C-2.28746 9.32202 -8.04815 13.0999 -10.9053 18.6034L-2.02999 23.211ZM-9.71681 25.4218C-9.16656 25.4218 -8.54477 25.5097 -7.86761 25.7072L-5.06765 16.1072C-6.54638 15.6759 -8.11265 15.4218 -9.71681 15.4218V25.4218Z" fill="white" mask="url(#path-1-outside-1_510_3709)"/>
</g>
<defs>
<filter id="filter0_f_510_3709" x="-32.9961" y="0.0664062" width="101.994" height="50.7266" filterUnits="userSpaceOnUse" color-interpolation-filters="sRGB">
<feFlood flood-opacity="0" result="BackgroundImageFix"/>
<feBlend mode="normal" in="SourceGraphic" in2="BackgroundImageFix" result="shape"/>
<feGaussianBlur stdDeviation="2" result="effect1_foregroundBlur_510_3709"/>
</filter>
<linearGradient id="paint0_linear_510_3709" x1="18.0011" y1="9.06641" x2="18.0011" y2="41.7938" gradientUnits="userSpaceOnUse">
<stop stop-color="#D0BFFF"/>
<stop offset="1" stop-color="#C3D2FF"/>
</linearGradient>
</defs>
</svg>
