<svg width="18" height="13" viewBox="0 0 18 13" fill="none" xmlns="http://www.w3.org/2000/svg">
<path fill-rule="evenodd" clip-rule="evenodd" d="M9.47117 2.84599C11.9377 2.8461 14.31 3.81668 16.0976 5.55712C16.2322 5.69149 16.4474 5.68979 16.5799 5.55332L17.8667 4.2234C17.9338 4.15418 17.9713 4.06042 17.9707 3.96287C17.9701 3.86531 17.9316 3.77201 17.8637 3.7036C13.1718 -0.901199 5.76978 -0.901199 1.07787 3.7036C1.0099 3.77196 0.971338 3.86523 0.970711 3.96279C0.970084 4.06034 1.00745 4.15413 1.07453 4.2234L2.36167 5.55332C2.49416 5.69 2.70949 5.6917 2.84402 5.55712C4.63186 3.81656 7.00437 2.84598 9.47117 2.84599ZM9.47146 7.17206C10.8267 7.17198 12.1335 7.68783 13.1381 8.61939C13.2739 8.7516 13.488 8.74873 13.6204 8.61293L14.9057 7.28302C14.9734 7.21326 15.011 7.11862 15.01 7.02029C15.009 6.92195 14.9696 6.82812 14.9005 6.75979C11.8414 3.8457 7.10407 3.8457 4.04499 6.75979C3.97589 6.82812 3.93647 6.922 3.93556 7.02037C3.93466 7.11873 3.97234 7.21336 4.04017 7.28302L5.32508 8.61293C5.45753 8.74873 5.67156 8.7516 5.80744 8.61939C6.81133 7.68845 8.11714 7.17264 9.47146 7.17206ZM12.046 10.0849C12.048 10.1835 12.0101 10.2785 11.9414 10.3476L9.71813 12.6453C9.65296 12.7129 9.56411 12.7509 9.47139 12.7509C9.37868 12.7509 9.28982 12.7129 9.22465 12.6453L7.00101 10.3476C6.93231 10.2785 6.89453 10.1834 6.89656 10.0848C6.8986 9.98617 6.94028 9.89279 7.01177 9.82668C8.43163 8.59683 10.5112 8.59683 11.931 9.82668C12.0025 9.89284 12.0441 9.98625 12.046 10.0849Z" fill="black"/>
</svg>
